<svg width="28" height="31" viewBox="0 0 28 31" fill="none" xmlns="http://www.w3.org/2000/svg">
<g clip-path="url(#clip0)">
<path d="M13.5686 8.53696C9.7178 8.53696 6.61174 11.643 6.61174 15.4938C6.61174 19.3446 9.7178 22.4506 13.5686 22.4506C17.4194 22.4506 20.5254 19.3446 20.5254 15.4938C20.5254 11.643 17.4194 8.53696 13.5686 8.53696ZM13.5686 20.0167C11.0801 20.0167 9.04572 17.9883 9.04572 15.4938C9.04572 12.9993 11.074 10.9709 13.5686 10.9709C16.0631 10.9709 18.0914 12.9993 18.0914 15.4938C18.0914 17.9883 16.0571 20.0167 13.5686 20.0167ZM22.4326 8.25239C22.4326 9.15454 21.7061 9.87505 20.81 9.87505C19.9078 9.87505 19.1873 9.14849 19.1873 8.25239C19.1873 7.3563 19.9139 6.62974 20.81 6.62974C21.7061 6.62974 22.4326 7.3563 22.4326 8.25239ZM27.0403 9.89927C26.9373 7.72564 26.4408 5.80024 24.8485 4.21392C23.2621 2.62759 21.3367 2.1311 19.1631 2.02212C16.9229 1.89497 10.2082 1.89497 7.96799 2.02212C5.80041 2.12505 3.87502 2.62153 2.28264 4.20786C0.690259 5.79419 0.199829 7.71958 0.0908447 9.89321C-0.0363037 12.1334 -0.0363037 18.8481 0.0908447 21.0883C0.193774 23.262 0.690259 25.1874 2.28264 26.7737C3.87502 28.36 5.79436 28.8565 7.96799 28.9655C10.2082 29.0926 16.9229 29.0926 19.1631 28.9655C21.3367 28.8625 23.2621 28.3661 24.8485 26.7737C26.4348 25.1874 26.9313 23.262 27.0403 21.0883C27.1674 18.8481 27.1674 12.1395 27.0403 9.89927ZM24.1461 23.492C23.6738 24.6788 22.7596 25.593 21.5668 26.0713C19.7807 26.7797 15.5424 26.6163 13.5686 26.6163C11.5947 26.6163 7.35041 26.7737 5.57034 26.0713C4.38362 25.5991 3.46936 24.6848 2.99104 23.492C2.28264 21.7059 2.44612 17.4676 2.44612 15.4938C2.44612 13.52 2.2887 9.27564 2.99104 7.49556C3.46331 6.30884 4.37756 5.39458 5.57034 4.91626C7.35647 4.20786 11.5947 4.37134 13.5686 4.37134C15.5424 4.37134 19.7867 4.21392 21.5668 4.91626C22.7535 5.38853 23.6678 6.30278 24.1461 7.49556C24.8545 9.28169 24.691 13.52 24.691 15.4938C24.691 17.4676 24.8545 21.712 24.1461 23.492Z" fill="#5B5B5B"/>
</g>
<defs>
<clipPath id="clip0">
<rect width="27.125" height="31" fill="white"/>
</clipPath>
</defs>
</svg>
