<svg width="29" height="23" viewBox="0 0 29 23" fill="none" xmlns="http://www.w3.org/2000/svg">
<path d="M27.7024 2.5154C26.6791 1.20946 24.7898 0.676758 21.1817 0.676758H8.0844C4.39374 0.676758 2.47247 1.24382 1.45303 2.63419C0.459106 3.9898 0.459106 5.98719 0.459106 8.75162V14.0206C0.459106 19.3762 1.63839 22.0954 8.0844 22.0954H21.1818C24.3107 22.0954 26.0445 21.6253 27.1662 20.4728C28.3165 19.291 28.8073 17.3614 28.8073 14.0206V8.75162C28.8073 5.83629 28.7304 3.82712 27.7024 2.5154ZM18.6587 12.1136L12.7113 15.4507C12.5783 15.5253 12.4329 15.5623 12.2877 15.5623C12.1233 15.5623 11.9592 15.5148 11.8139 15.4203C11.5403 15.2423 11.3733 14.9239 11.3733 14.5805V7.92773C11.3733 7.5849 11.5399 7.26681 11.8129 7.08872C12.0861 6.91063 12.4258 6.89846 12.7092 7.05652L18.6566 10.3721C18.9592 10.5408 19.1493 10.8762 19.1497 11.2421C19.1501 11.6082 18.9609 11.9441 18.6587 12.1136Z" fill="#5B5B5B"/>
</svg>
