<svg width="44" height="37" viewBox="0 0 44 37" fill="none" xmlns="http://www.w3.org/2000/svg">
<path d="M4.41602 33.709C7.33268 32.4785 9.83919 30.5645 11.9355 27.9668C14.0319 25.3236 15.0801 22.6576 15.0801 19.9688C15.0801 18.8294 14.9434 17.8496 14.6699 17.0293C13.0749 18.2598 11.3431 18.875 9.47461 18.875C6.92253 18.875 4.7806 18.0775 3.04883 16.4824C1.36263 14.8418 0.519531 12.6543 0.519531 9.91992C0.519531 7.36784 1.38542 5.2487 3.11719 3.5625C4.84896 1.83073 6.9681 0.964844 9.47461 0.964844C13.0749 0.964844 15.832 2.44596 17.7461 5.4082C19.3411 7.86914 20.1387 10.9453 20.1387 14.6367C20.1387 19.3307 18.931 23.5462 16.5156 27.2832C14.1458 30.9746 10.5456 33.9596 5.71484 36.2383L4.41602 33.709ZM28.2051 33.709C31.1217 32.4785 33.6283 30.5645 35.7246 27.9668C37.821 25.3236 38.8691 22.6576 38.8691 19.9688C38.8691 18.8294 38.7324 17.8496 38.459 17.0293C36.9095 18.2598 35.1777 18.875 33.2637 18.875C30.7572 18.875 28.638 18.0775 26.9062 16.4824C25.1745 14.8418 24.3086 12.6543 24.3086 9.91992C24.3086 8.23372 24.7188 6.70703 25.5391 5.33984C26.3594 3.97266 27.4531 2.90169 28.8203 2.12695C30.1875 1.35221 31.6686 0.964844 33.2637 0.964844C36.8639 0.964844 39.6211 2.44596 41.5352 5.4082C43.1302 7.86914 43.9277 10.9453 43.9277 14.6367C43.9277 19.3307 42.7201 23.5462 40.3047 27.2832C37.9349 30.9746 34.3346 33.9596 29.5039 36.2383L28.2051 33.709Z" fill="black"/>
</svg>
