<svg width="27" height="26" viewBox="0 0 27 26" fill="none" xmlns="http://www.w3.org/2000/svg">
<g clip-path="url(#clip0)">
<path d="M10.1757 5.3362C10.1757 5.96861 10.1757 8.79131 10.1757 8.79131H7.64441V13.0162H10.1757V25.5712H15.3756V13.0166H18.865C18.865 13.0166 19.1918 10.9908 19.3502 8.77573C18.896 8.77573 15.3953 8.77573 15.3953 8.77573C15.3953 8.77573 15.3953 6.31781 15.3953 5.88698C15.3953 5.45523 15.9622 4.87445 16.5226 4.87445C17.0819 4.87445 18.2623 4.87445 19.3556 4.87445C19.3556 4.29923 19.3556 2.31168 19.3556 0.476074C17.8961 0.476074 16.2356 0.476074 15.5036 0.476074C10.0472 0.475783 10.1757 4.7049 10.1757 5.3362Z" fill="#5B5B5B"/>
</g>
<defs>
<clipPath id="clip0">
<rect width="25.0952" height="25.0952" fill="white" transform="translate(0.952393 0.476074)"/>
</clipPath>
</defs>
</svg>
