<svg width="20" height="20" viewBox="0 0 20 20" fill="none" xmlns="http://www.w3.org/2000/svg">
<circle r="10" transform="matrix(1 0 0 -1 10 10)"/>
<g clip-path="url(#clip0)">
<path d="M9.5047 6.80453L5.205 11.1044C4.93134 11.3779 4.93134 11.8214 5.205 12.0947C5.47841 12.3682 5.92185 12.3682 6.19524 12.0947L9.99983 8.29005L13.8043 12.0946C14.0778 12.368 14.5212 12.368 14.7946 12.0946C15.0681 11.8212 15.0681 11.3778 14.7946 11.1043L10.4948 6.80442C10.3581 6.66771 10.179 6.59943 9.99985 6.59943C9.82061 6.59943 9.64141 6.66784 9.5047 6.80453Z" fill="white"/>
</g>
<defs>
<clipPath id="clip0">
<rect width="9.99998" height="10" fill="white" transform="matrix(-4.37114e-08 -1 -1 4.37114e-08 15 14)"/>
</clipPath>
</defs>
</svg>
