<svg width="29" height="24" viewBox="0 0 29 24" fill="none" xmlns="http://www.w3.org/2000/svg">
<path d="M25.5696 4.45988C26.8285 3.70768 27.6621 2.68099 28.0703 1.37526C26.8457 2.00765 25.6257 2.44138 24.4072 2.68099C23.3119 1.5345 21.9251 0.952148 20.2626 0.952148C18.6375 0.952148 17.2648 1.5072 16.1445 2.58697C15.0305 3.67432 14.468 4.99522 14.468 6.53753C14.468 7.00614 14.5288 7.4247 14.6503 7.77957C9.85754 7.62033 5.89058 5.68524 2.765 1.96064C2.23525 2.87208 1.97037 3.80019 1.97037 4.76016C1.97037 6.73316 2.82577 8.2967 4.53346 9.44472C3.55964 9.36434 2.70112 9.12473 1.97037 8.73195C1.97037 10.1408 2.39573 11.3176 3.24802 12.3534C4.10342 13.3786 5.2019 14.0322 6.54343 14.3113C6.0573 14.4326 5.54468 14.4902 5.01804 14.4902C4.53191 14.4902 4.18756 14.4508 3.98345 14.3643C4.34182 15.5124 5.01804 16.4435 5.99498 17.1563C6.9688 17.8721 8.08908 18.2497 9.34804 18.2831C7.27263 19.8678 4.89962 20.6519 2.21499 20.6519C1.55747 20.6519 1.09159 20.6428 0.80957 20.5942C3.45369 22.2655 6.39697 23.095 9.65343 23.095C12.9862 23.095 15.9311 22.273 18.4942 20.6291C21.0573 18.9943 22.9488 16.9773 24.1642 14.6024C25.3857 12.2306 25.9903 9.76167 25.9903 7.18357V6.47383C27.1713 5.60941 28.1264 4.6358 28.8572 3.56058C27.7977 4.00492 26.7023 4.30671 25.5696 4.45988Z" fill="#5B5B5B"/>
</svg>
