<svg xmlns="http://www.w3.org/2000/svg" style="display: none;">
    <symbol id="icon-facebook" viewBox="0 0 27 26">
        <title>Facebook</title>
        <g clip-path="url(#clip0)"><path d="M10.1757 5.3362C10.1757 5.96861 10.1757 8.79131 10.1757 8.79131H7.64441V13.0162H10.1757V25.5712H15.3756V13.0166H18.865C18.865 13.0166 19.1918 10.9908 19.3502 8.77573C18.896 8.77573 15.3953 8.77573 15.3953 8.77573C15.3953 8.77573 15.3953 6.31781 15.3953 5.88698C15.3953 5.45523 15.9622 4.87445 16.5226 4.87445C17.0819 4.87445 18.2623 4.87445 19.3556 4.87445C19.3556 4.29923 19.3556 2.31168 19.3556 0.476074C17.8961 0.476074 16.2356 0.476074 15.5036 0.476074C10.0472 0.475783 10.1757 4.7049 10.1757 5.3362Z" /></g>
        <defs><clipPath id="clip0"><rect width="25.0952" height="25.0952" fill="white" transform="translate(0.952393 0.476074)"/></clipPath></defs>
    </symbol>
    <symbol id="icon-twitter" viewBox="0 0 29 24">
        <title>Twitter</title>
        <path d="M25.5696 4.45988C26.8285 3.70768 27.6621 2.68099 28.0703 1.37526C26.8457 2.00765 25.6257 2.44138 24.4072 2.68099C23.3119 1.5345 21.9251 0.952148 20.2626 0.952148C18.6375 0.952148 17.2648 1.5072 16.1445 2.58697C15.0305 3.67432 14.468 4.99522 14.468 6.53753C14.468 7.00614 14.5288 7.4247 14.6503 7.77957C9.85754 7.62033 5.89058 5.68524 2.765 1.96064C2.23525 2.87208 1.97037 3.80019 1.97037 4.76016C1.97037 6.73316 2.82577 8.2967 4.53346 9.44472C3.55964 9.36434 2.70112 9.12473 1.97037 8.73195C1.97037 10.1408 2.39573 11.3176 3.24802 12.3534C4.10342 13.3786 5.2019 14.0322 6.54343 14.3113C6.0573 14.4326 5.54468 14.4902 5.01804 14.4902C4.53191 14.4902 4.18756 14.4508 3.98345 14.3643C4.34182 15.5124 5.01804 16.4435 5.99498 17.1563C6.9688 17.8721 8.08908 18.2497 9.34804 18.2831C7.27263 19.8678 4.89962 20.6519 2.21499 20.6519C1.55747 20.6519 1.09159 20.6428 0.80957 20.5942C3.45369 22.2655 6.39697 23.095 9.65343 23.095C12.9862 23.095 15.9311 22.273 18.4942 20.6291C21.0573 18.9943 22.9488 16.9773 24.1642 14.6024C25.3857 12.2306 25.9903 9.76167 25.9903 7.18357V6.47383C27.1713 5.60941 28.1264 4.6358 28.8572 3.56058C27.7977 4.00492 26.7023 4.30671 25.5696 4.45988Z" />
    </symbol>
    <symbol id="icon-instagram" viewBox="0 0 28 31">
        <title>Instagram</title>
        <g clip-path="url(#clip0)"><path d="M13.5686 8.53696C9.7178 8.53696 6.61174 11.643 6.61174 15.4938C6.61174 19.3446 9.7178 22.4506 13.5686 22.4506C17.4194 22.4506 20.5254 19.3446 20.5254 15.4938C20.5254 11.643 17.4194 8.53696 13.5686 8.53696ZM13.5686 20.0167C11.0801 20.0167 9.04572 17.9883 9.04572 15.4938C9.04572 12.9993 11.074 10.9709 13.5686 10.9709C16.0631 10.9709 18.0914 12.9993 18.0914 15.4938C18.0914 17.9883 16.0571 20.0167 13.5686 20.0167ZM22.4326 8.25239C22.4326 9.15454 21.7061 9.87505 20.81 9.87505C19.9078 9.87505 19.1873 9.14849 19.1873 8.25239C19.1873 7.3563 19.9139 6.62974 20.81 6.62974C21.7061 6.62974 22.4326 7.3563 22.4326 8.25239ZM27.0403 9.89927C26.9373 7.72564 26.4408 5.80024 24.8485 4.21392C23.2621 2.62759 21.3367 2.1311 19.1631 2.02212C16.9229 1.89497 10.2082 1.89497 7.96799 2.02212C5.80041 2.12505 3.87502 2.62153 2.28264 4.20786C0.690259 5.79419 0.199829 7.71958 0.0908447 9.89321C-0.0363037 12.1334 -0.0363037 18.8481 0.0908447 21.0883C0.193774 23.262 0.690259 25.1874 2.28264 26.7737C3.87502 28.36 5.79436 28.8565 7.96799 28.9655C10.2082 29.0926 16.9229 29.0926 19.1631 28.9655C21.3367 28.8625 23.2621 28.3661 24.8485 26.7737C26.4348 25.1874 26.9313 23.262 27.0403 21.0883C27.1674 18.8481 27.1674 12.1395 27.0403 9.89927ZM24.1461 23.492C23.6738 24.6788 22.7596 25.593 21.5668 26.0713C19.7807 26.7797 15.5424 26.6163 13.5686 26.6163C11.5947 26.6163 7.35041 26.7737 5.57034 26.0713C4.38362 25.5991 3.46936 24.6848 2.99104 23.492C2.28264 21.7059 2.44612 17.4676 2.44612 15.4938C2.44612 13.52 2.2887 9.27564 2.99104 7.49556C3.46331 6.30884 4.37756 5.39458 5.57034 4.91626C7.35647 4.20786 11.5947 4.37134 13.5686 4.37134C15.5424 4.37134 19.7867 4.21392 21.5668 4.91626C22.7535 5.38853 23.6678 6.30278 24.1461 7.49556C24.8545 9.28169 24.691 13.52 24.691 15.4938C24.691 17.4676 24.8545 21.712 24.1461 23.492Z" /></g>
        <defs><clipPath id="clip0"><rect width="27.125" height="31" fill="white"/></clipPath></defs>
    </symbol>
    <symbol id="icon-you-tube" viewBox="0 0 29 23">
        <title>You Tube</title>
        <path d="M27.7024 2.5154C26.6791 1.20946 24.7898 0.676758 21.1817 0.676758H8.0844C4.39374 0.676758 2.47247 1.24382 1.45303 2.63419C0.459106 3.9898 0.459106 5.98719 0.459106 8.75162V14.0206C0.459106 19.3762 1.63839 22.0954 8.0844 22.0954H21.1818C24.3107 22.0954 26.0445 21.6253 27.1662 20.4728C28.3165 19.291 28.8073 17.3614 28.8073 14.0206V8.75162C28.8073 5.83629 28.7304 3.82712 27.7024 2.5154ZM18.6587 12.1136L12.7113 15.4507C12.5783 15.5253 12.4329 15.5623 12.2877 15.5623C12.1233 15.5623 11.9592 15.5148 11.8139 15.4203C11.5403 15.2423 11.3733 14.9239 11.3733 14.5805V7.92773C11.3733 7.5849 11.5399 7.26681 11.8129 7.08872C12.0861 6.91063 12.4258 6.89846 12.7092 7.05652L18.6566 10.3721C18.9592 10.5408 19.1493 10.8762 19.1497 11.2421C19.1501 11.6082 18.9609 11.9441 18.6587 12.1136Z" />
    </symbol>
    <symbol id="icon-faq" viewBox="0 0 20 20">
        <title>icon-faq</title>
        <circle r="10" transform="matrix(1 0 0 -1 10 10)" fill="#E10031"/><g clip-path="url(#clip0)"><path d="M9.5047 6.80453L5.205 11.1044C4.93134 11.3779 4.93134 11.8214 5.205 12.0947C5.47841 12.3682 5.92185 12.3682 6.19524 12.0947L9.99983 8.29005L13.8043 12.0946C14.0778 12.368 14.5212 12.368 14.7946 12.0946C15.0681 11.8212 15.0681 11.3778 14.7946 11.1043L10.4948 6.80442C10.3581 6.66771 10.179 6.59943 9.99985 6.59943C9.82061 6.59943 9.64141 6.66784 9.5047 6.80453Z" fill="white"/></g>
        <defs><clipPath id="clip0"><rect width="9.99998" height="10" fill="white" transform="matrix(-4.37114e-08 -1 -1 4.37114e-08 15 14)"/></clipPath></defs>
    </symbol>
    <symbol id="play-button" viewBox="0 0 60 60">
        <title>play-button</title>
        <circle cx="30" cy="30" r="30"/>
        <path d="M23 40.99L41.2218 30.495L23 20V40.99Z" fill="white"/>
    </symbol>
</svg>