<svg width="27" height="20" viewBox="0 0 27 20" fill="none" xmlns="http://www.w3.org/2000/svg">
<path d="M19.3323 6.29048C19.2608 7.50532 18.7247 9.04174 17.6883 9.72062C17.6525 9.5777 17.6525 9.4705 17.6168 9.32758C18.2601 9.61342 18.689 10.2566 19.3323 10.5067C19.6182 10.6139 19.4395 11.0426 19.1536 10.9355C18.4745 10.6853 18.0814 10.0422 17.4381 9.75635C17.2952 9.68489 17.2237 9.4705 17.3666 9.36331C18.2958 8.72016 18.7605 7.32666 18.8319 6.21902C18.9034 5.93317 19.368 6.00464 19.3323 6.29048Z" fill="#5A6D4F"/>
<path d="M4.14326 16.1879C4.3577 16.7238 3.42848 18.3566 2.92814 19.1427L3.24979 19.5C3.89309 18.4995 4.92952 17.1883 6.10891 17.224C6.75221 17.224 7.35978 16.9025 7.82439 16.5094C7.9316 16.438 8.03882 16.3308 8.14604 16.2593C8.18178 16.3665 8.28899 16.4022 8.39621 16.3308C8.57491 16.2236 8.82508 16.2236 9.03951 16.2593C9.3969 16.4737 9.68282 16.7238 10.0045 16.9382C10.0759 17.0454 10.1117 17.1883 10.1117 17.2955C10.1117 17.4742 10.3261 17.5099 10.4691 17.4384C10.5406 17.367 10.6478 17.3312 10.7192 17.2955C10.9694 17.367 11.2196 17.4027 11.5412 17.3312C12.3632 17.1883 13.1852 16.8667 13.9 16.438C14.043 16.3308 14.2217 16.2593 14.3646 16.1164C14.5791 15.9377 14.3289 15.5804 14.0787 15.7591C13.9715 15.8663 13.7928 15.9377 13.6499 16.0449C12.7564 16.5094 11.6842 16.438 10.7192 16.7953L10.7192 16.7953C10.612 16.7595 10.5048 16.7238 10.3976 16.6523C10.1474 16.2236 9.64708 15.8663 9.14673 15.7591L8.9323 15.6519C9.93299 15.0802 10.8979 14.6157 12.0059 14.1512C15.1866 12.8292 17.331 10.2566 19.797 7.93408C20.0114 7.75543 19.8327 7.43385 19.5825 7.54104C17.0451 8.64869 15.7942 11.0426 13.5069 12.4361C12.3275 13.1508 11.0052 13.6867 9.82577 14.437C9.64708 14.5442 9.43264 14.7229 9.25395 14.8658C9.14675 14.9373 9.07527 14.973 9.0038 15.0087L9.00378 15.0087C7.82439 15.6876 7.1096 16.6881 5.53709 16.2593C5.25117 16.1879 5.07248 16.5809 5.32265 16.6881C5.21544 16.6881 5.14396 16.6881 5.07248 16.7238L5.07248 16.6881L5.1797 16.4737C5.25117 16.3665 5.25117 16.2236 5.14396 16.1521C4.89378 15.9377 4.60787 15.8306 4.3577 15.6519C4.28622 15.5804 4.21474 15.5447 4.14326 15.4732C4.03605 15.3303 3.92883 15.2231 3.82162 15.0802C3.85736 15.0802 3.89309 15.0445 3.92883 15.0445C4.21474 14.9373 4.03605 14.5085 3.75014 14.6157C3.7144 14.6514 3.67866 14.6157 3.64292 14.6157C3.57144 14.044 3.75014 13.3651 3.92883 12.9006C4.25048 12.0788 4.60787 11.2928 4.71509 10.3995C4.75083 10.1494 4.39344 10.0422 4.28622 10.2923C3.75014 11.4357 2.92814 12.8292 2.96388 14.0797C2.60653 13.6868 2.21346 13.3295 1.82038 12.9722L1.82023 12.9721C1.49858 12.6863 1.17693 12.3647 0.783796 12.186C0.569363 12.0788 0.354925 12.4361 0.569359 12.5791C1.60579 13.2937 2.46353 14.1512 3.24979 15.0802C3.39274 15.3303 3.60718 15.5804 3.85735 15.7948C3.92883 15.9377 4.03605 16.0449 4.14326 16.1879Z" fill="#5A6D4F"/>
<path d="M6.75221 11.9002C6.14465 11.9002 6.2876 11.0069 6.85943 10.9712C7.00239 10.9712 7.39551 10.9712 7.35978 10.9712C8.00308 11.0426 8.64638 10.8997 9.07525 10.3995C9.86151 9.54194 9.46838 8.07698 8.86082 7.25517C7.14534 4.93267 3.67865 9.04171 4.85804 9.86351C5.35839 10.2208 4.78656 10.9354 4.32195 10.6139C3.10682 9.75632 4.0003 8.2199 4.60787 7.25517C5.42987 6.0046 7.60995 5.14705 8.9323 6.07605C10.1117 6.89786 10.755 8.5772 10.2904 9.9707C9.71856 11.7215 8.36047 11.9359 6.75221 11.9002Z" fill="#851619"/>
<path d="M5.10826 11.2213C4.42922 10.8282 4.17905 10.2566 4.21479 9.68487C3.92887 8.36283 5.35844 7.04079 6.57357 6.61202C8.36052 6.0046 10.1832 7.75541 9.75435 9.54195C9.254 11.5786 6.75226 12.186 5.10826 11.2213Z" fill="#AF2734"/>
<path d="M6.82368 10.3995C6.78794 10.3638 6.7522 10.3638 6.71646 10.3281C6.35907 10.2209 6.07316 10.0065 5.96594 9.64919C5.85873 9.22043 6.28759 8.82741 6.60925 8.64876C7.03811 8.43437 7.60994 8.43438 8.00307 8.68449C8.50341 9.00606 8.71785 9.61346 8.3962 10.1494C8.03881 10.6496 7.32403 10.6854 6.82368 10.3995Z" fill="#F69A97"/>
<path d="M22.9063 11.0783C21.4052 11.4356 19.8685 10.8639 18.8678 9.72056C17.8313 8.50571 18.6176 6.93356 19.5826 5.96883C19.6898 5.86164 19.797 5.75444 19.9042 5.68298C20.9406 4.71825 22.2272 4.61107 23.5139 5.25422C24.729 5.86164 25.8726 7.18368 25.7654 8.6129C25.6582 9.89921 24.0499 10.7925 22.9063 11.0783Z" fill="#E53B3A"/>
<path d="M15.2581 17.4383C14.4004 17.0453 13.2925 15.9734 13.6856 15.0444C13.6498 13.8653 14.1145 12.7576 15.3653 12.1502C17.0093 11.3284 18.975 12.043 19.654 13.7581C20.0829 14.83 19.5468 16.1163 18.6533 16.7952C17.7598 17.617 16.4375 17.9386 15.2581 17.4383Z" fill="#AF2734"/>
<path d="M15.4725 16.4736C15.4725 16.4378 15.4725 16.4378 15.4725 16.4736C15.3295 16.4736 15.1866 16.4378 15.0793 16.2949C14.3646 15.4731 14.6147 14.1868 15.4725 13.5436C16.5804 12.7218 17.9385 13.758 18.1172 14.9372C18.3673 16.3664 16.5804 17.1167 15.4725 16.4736Z" fill="#F69A97"/>
<path d="M16.7592 3.61061C16.0087 1.96702 17.8313 -0.0696035 19.5468 0.001857C21.1908 0.0733173 23.2994 1.64545 22.4059 3.43196C22.1558 3.96791 21.2623 3.61061 21.5482 3.07466C22.12 1.93129 20.7262 1.07377 19.7613 0.930845C18.6533 0.752194 17.1523 2.10994 17.6526 3.25331C17.8313 3.78926 17.0093 4.14656 16.7592 3.61061Z" fill="#851619"/>
<path d="M18.975 5.96885C18.0815 5.93312 17.331 5.25423 17.0093 4.43243C16.9736 4.3967 16.9378 4.36097 16.9021 4.28951C16.1516 2.86028 17.5454 1.57399 18.7248 1.0023C20.4045 0.180496 22.0128 0.78791 22.4416 2.68163C22.9777 4.754 20.7976 6.07604 18.975 5.96885Z" fill="#D02E2B"/>
<path d="M17.2237 4.07512C16.8306 3.0032 17.9027 2.39578 18.832 2.14566C19.0821 2.03847 19.368 1.93128 19.5825 1.85982C20.7261 1.57398 21.7268 2.68162 21.8698 3.71781C22.2272 6.1475 17.3667 6.71919 17.2237 4.07512Z" fill="#F15855"/>
<path d="M19.654 4.86119C19.2966 5.00411 18.832 4.89692 18.5818 4.50389C18.5103 4.36097 18.4746 4.21805 18.5103 4.07513C18.5103 4.00367 18.4746 3.93222 18.5103 3.82503C18.5461 3.36055 19.0107 3.03898 19.4753 3.07471C19.7612 3.11044 20.0471 3.28908 20.1543 3.53919C20.1901 3.57492 20.1901 3.61066 20.2258 3.64639C20.3688 4.00368 20.333 4.3967 20.0114 4.64681C19.9042 4.78973 19.7969 4.82546 19.654 4.86119Z" fill="#F69A97"/>
<path d="M20.0114 12.5075C17.1523 9.18455 24.5145 5.32567 25.8726 9.8277C26.5874 12.1859 24.6217 14.0439 22.2987 13.9367C20.6547 13.8652 19.0107 11.8643 19.9042 10.3279C20.2258 9.82769 20.9406 10.3636 20.6547 10.8639C20.0829 11.8286 21.6197 12.9005 22.4059 13.0077C24.3716 13.2935 25.6939 11.114 24.729 9.47039C23.4424 7.29084 18.9035 9.79197 20.7262 11.9001C21.1551 12.4003 20.4045 12.972 20.0114 12.5075Z" fill="#852B45"/>
<path d="M23.7997 13.6867C23.2637 13.9368 22.6561 14.0797 22.0843 14.0083C21.1908 13.9011 20.4045 13.2579 19.9757 12.4361C19.9042 12.4004 19.797 12.3289 19.7612 12.186C19.6183 11.8287 19.5825 11.5071 19.6183 11.1856C19.6183 11.0426 19.6183 10.8997 19.6183 10.7568C19.8327 9.18464 21.9413 8.11273 23.3709 8.14846C25.0149 8.21992 26.4444 10.1851 25.8726 11.793C25.5867 12.6862 24.729 13.4723 23.7997 13.6867Z" fill="#D02E2B"/>
<path d="M21.7983 12.972C21.6553 12.6147 21.7268 12.0788 22.1199 11.9001C22.4059 11.7572 22.656 11.9359 22.8705 12.1145C23.0134 12.2574 23.0492 12.4004 23.0849 12.579C23.2279 12.7934 23.1564 13.0078 22.9777 13.1864C22.5846 13.5437 22.0127 13.4365 21.7983 12.972Z" fill="#F69A97"/>
</svg>
